<?xml version="1.0" encoding="UTF-8"?>
<svg xmlns="http://www.w3.org/2000/svg"
     viewBox="0 0 200 200"
     width="200" height="200"
     role="img"
     aria-label="Equazion chatbot Q icon">
  <title>Equazion Q</title>
  <circle cx="100.0" cy="100.0" r="100.0" fill="#3B3939"/>
  <g transform="translate(28.0000,172.0000) scale(0.059016,-0.059016)"
     fill="#C98212" stroke="none">
    <path d="M800 2346 c-162 -34 -321 -118 -441 -233 -182 -174 -271 -383 -272
-638 -1 -256 88 -477 262 -654 290 -293 734 -344 1052 -120 26 18 27 18 65 -8
87 -58 175 -121 358 -253 65 -47 137 -98 160 -115 23 -16 95 -68 160 -115 181
-130 196 -140 211 -140 8 0 15 3 15 6 0 3 -35 55 -77 116 -43 61 -119 169
-170 242 -51 72 -137 194 -192 271 -139 197 -211 304 -211 316 0 6 15 36 33
67 78 134 101 237 94 421 -6 152 -25 235 -80 348 -50 102 -81 146 -159 229
-108 114 -264 207 -415 249 -80 22 -309 29 -393 11z m305 -280 c114 -31 230
-104 297 -187 42 -52 109 -184 129 -254 21 -76 19 -265 -5 -342 -13 -43 -24
-63 -35 -63 -9 0 -92 54 -186 119 -654 459 -643 452 -638 426 1 -6 52 -81 113
-165 61 -85 131 -184 155 -220 24 -36 62 -90 84 -120 22 -30 61 -86 88 -125
26 -38 69 -100 95 -136 27 -36 48 -71 48 -78 0 -16 -69 -45 -159 -66 -278 -68
-582 117 -674 410 -33 103 -32 291 2 393 67 206 247 372 446 412 65 13 186 11
240 -4z m523 -1028 c8 -8 12 -50 12 -124 0 -93 -3 -113 -16 -118 -20 -8 -188
-8 -208 0 -13 5 -16 26 -16 123 0 65 3 121 7 124 12 13 208 8 221 -5z"/>
  </g>
</svg>